<svg xmlns="http://www.w3.org/2000/svg" viewBox="0 0 1200 900" width="1200" height="900"><defs>
<linearGradient id="g33052" x1="0" y1="0" x2="1" y2="1">
  <stop offset="0" stop-color="#ffc247"/>
  <stop offset="0.52" stop-color="#ff8a4c"/>
  <stop offset="1" stop-color="#ef5da8"/>
</linearGradient>
<radialGradient id="bloomA33052" cx="0.5" cy="0.5" r="0.5">
  <stop offset="0" stop-color="#ffffff" stop-opacity="0.55"/>
  <stop offset="1" stop-color="#ffffff" stop-opacity="0"/>
</radialGradient>
<radialGradient id="bloomB33052" cx="0.5" cy="0.5" r="0.5">
  <stop offset="0" stop-color="#ffc247" stop-opacity="0.75"/>
  <stop offset="1" stop-color="#ffc247" stop-opacity="0"/>
</radialGradient>
<radialGradient id="vig33052" cx="0.5" cy="0.46" r="0.72">
  <stop offset="0.55" stop-color="#0e1020" stop-opacity="0"/>
  <stop offset="1" stop-color="#0e1020" stop-opacity="0.34"/>
</radialGradient>
<filter id="grain33052" x="0" y="0" width="100%" height="100%">
  <feTurbulence type="fractalNoise" baseFrequency="0.85" numOctaves="3" seed="15" result="n"/>
  <feColorMatrix in="n" type="saturate" values="0"/>
</filter>
<filter id="soft33052" x="-30%" y="-30%" width="160%" height="160%">
  <feGaussianBlur stdDeviation="42"/>
</filter>
</defs><rect width="1200" height="900" fill="url(#g33052)"/><ellipse cx="912.0" cy="162.0" rx="380" ry="330" fill="url(#bloomA33052)" opacity="0.55"/><ellipse cx="168.0" cy="828.0" rx="420" ry="360" fill="url(#bloomB33052)" opacity="0.7"/><circle cx="600.0" cy="450.0" r="90.0" fill="none" stroke="#ffffff" stroke-opacity="0.150" stroke-width="2.5"/><circle cx="600.0" cy="450.0" r="164.0" fill="none" stroke="#ffffff" stroke-opacity="0.135" stroke-width="2.5"/><circle cx="600.0" cy="450.0" r="238.0" fill="none" stroke="#ffffff" stroke-opacity="0.120" stroke-width="2.5"/><circle cx="600.0" cy="450.0" r="312.0" fill="none" stroke="#ffffff" stroke-opacity="0.105" stroke-width="2.5"/><circle cx="600.0" cy="450.0" r="386.0" fill="none" stroke="#ffffff" stroke-opacity="0.090" stroke-width="2.5"/><circle cx="600.0" cy="450.0" r="460.0" fill="none" stroke="#ffffff" stroke-opacity="0.075" stroke-width="2.5"/><circle cx="600.0" cy="450.0" r="534.0" fill="none" stroke="#ffffff" stroke-opacity="0.060" stroke-width="2.5"/><circle cx="600.0" cy="450.0" r="608.0" fill="none" stroke="#ffffff" stroke-opacity="0.045" stroke-width="2.5"/><g filter="url(#soft33052)"><circle cx="1102.5" cy="80.6" r="98.9" fill="#ffffff" opacity="0.061"/><circle cx="1125.2" cy="84.5" r="110.4" fill="#ffffff" opacity="0.098"/><circle cx="985.9" cy="809.9" r="59.2" fill="#ffffff" opacity="0.074"/><circle cx="824.8" cy="279.1" r="61.1" fill="#ffffff" opacity="0.066"/></g><g transform="translate(414.0 237.0) scale(15.5)" fill="none" stroke="#ffffff" stroke-opacity="0.92" stroke-width="1.15" stroke-linecap="round" stroke-linejoin="round"><path d="M3.6 10.6h16.8v5.8a3.6 3.6 0 0 1-3.6 3.6H7.2a3.6 3.6 0 0 1-3.6-3.6z"/><circle cx="7.8" cy="7.6" r="2.2"/><circle cx="13.4" cy="6.2" r="2"/><circle cx="17.8" cy="8.4" r="1.8"/></g><rect width="1200" height="900" fill="url(#vig33052)"/><rect width="1200" height="900" filter="url(#grain33052)" opacity="0.16" style="mix-blend-mode:overlay"/></svg>